<?xml version="1.0" encoding="utf-8"?>
<!-- Generator: Adobe Illustrator 25.1.0, SVG Export Plug-In . SVG Version: 6.00 Build 0)  -->
<svg version="1.1" id="レイヤー_1" xmlns="http://www.w3.org/2000/svg" xmlns:xlink="http://www.w3.org/1999/xlink" x="0px"
	 y="0px" viewBox="0 0 300 300" style="enable-background:new 0 0 300 300;" xml:space="preserve">
<style type="text/css">
	.st0{fill:#2B2B2B;}
</style>
<g>
	<path class="st0" d="M214.43,180.17c10.09,0,20.05-0.61,29.88-1.84c9.83-1.22,18.04-3.06,24.64-5.51
		c7.11-2.58,12.74-5.76,16.88-9.56c4.14-3.8,6.21-8.53,6.21-14.18c0-5.46-3.69-9.67-11.07-12.62c-7.38-2.95-17.28-4.43-29.71-4.43
		c-9.97,0-18.48,0.83-25.54,2.5c-7.05,1.66-13.43,3.94-19.12,6.82c-5.31,2.76-9.71,6.03-13.21,9.79c-3.5,3.77-6.41,7.91-8.74,12.43
		l-37.95,80.77c7.5,2.32,16.3,4.03,26.39,5.13c10.09,1.1,19.79,1.65,29.11,1.65c23.02,0,40.91-3.37,53.65-10.11
		c12.74-6.74,19.11-15,19.11-24.78c0-4.33-1.78-7.88-5.34-10.68c-3.56-2.79-8.44-5.03-14.65-6.73c-6.08-1.57-13.07-2.65-20.95-3.24
		c-7.89-0.6-15.98-0.89-24.25-0.89h-9.12l6.79-14.51H214.43z"/>
	<path class="st0" d="M300,197.35v-20.87c-10.85,4.44-23.78,7.65-38.81,9.62l-0.78,1.6c16.94,1.51,29.98,4.63,39.1,9.38
		C299.68,197.17,299.84,197.26,300,197.35z"/>
	<path class="st0" d="M148.22,162.74c6.6-13.88,19.5-24.86,38.72-32.93c19.21-8.07,43.57-12.11,73.07-12.11
		c15.87,0,29.19,1.36,39.99,4.06v-82.7C300,17.49,287.92,0,273.02,0H26.98C12.08,0,0,17.49,0,39.06v221.88
		C0,282.51,12.08,300,26.98,300h56.41L148.22,162.74z"/>
	<path class="st0" d="M280.3,251.73c-21.92,9.77-47.89,14.65-77.9,14.65c-10.22,0-21.09-0.68-32.6-2.03
		c-11.51-1.35-21.41-3.38-29.68-6.08L120.23,300h152.79c14.9,0,26.98-17.49,26.98-39.06v-20.93
		C294.91,244.24,288.35,248.15,280.3,251.73z"/>
</g>
</svg>
